<svg xmlns="http://www.w3.org/2000/svg" width="32" height="24" viewBox="0 0 32 24"><path d="M31,4H1A1,1,0,0,0,0,5V27a1,1,0,0,0,1,1H31a1,1,0,0,0,1-1V5A1,1,0,0,0,31,4ZM30,25a1,1,0,0,1-1,1H3a1,1,0,0,1-1-1V7A1,1,0,0,1,3,6H29a1,1,0,0,1,1,1ZM9.5,12.141,5.643,8.285A.96.96,0,0,0,4.285,9.643L7.643,13,4.285,16.358a.96.96,0,1,0,1.358,1.357L9.5,13.86a.91.91,0,0,0,.217-.144,1.071,1.071,0,0,0,0-1.431.91.91,0,0,0-.217-.144ZM19,16H13a1,1,0,0,0,0,2h6a1,1,0,0,0,0-2Z" transform="translate(0 -4)" fill="#138364"/></svg>